<?xml version="1.0" encoding="UTF-8"?>
<svg xmlns="http://www.w3.org/2000/svg" xmlns:xlink="http://www.w3.org/1999/xlink" width="2000pt" height="2000pt" viewBox="0 0 2000 2000" version="1.1">
<g id="surface1">
<path style="fill:none;stroke-width:2;stroke-linecap:butt;stroke-linejoin:miter;stroke:rgb(0%,0%,0%);stroke-opacity:1;stroke-miterlimit:10;" d="M 764.332832 0.000950694 L 771.938306 26.955068 L 773.475939 54.085902 L 769.098279 80.837007 L 759.138951 106.688612 L 744.086832 131.201512 L 724.562352 154.010082 L 701.291123 174.850557 L 675.041612 193.567116 L 646.616926 210.100445 L 616.792486 224.493821 L 586.284112 236.874683 L 555.711528 247.416823 L 525.55501 256.330169 L 496.189429 263.828331 L 467.916299 270.150932 L 440.987066 275.558886 L 415.602837 280.326594 L 391.894311 284.727003 L 369.941298 289.03093 L 349.776222 293.495213 L 331.380751 298.378461 L 314.700195 303.905378 L 299.632198 310.278876 L 286.042492 317.683441 L 273.76394 326.257805 L 262.601128 336.114323 L 252.337346 347.315285 L 242.742675 359.880445 L 233.570217 373.791064 L 224.566853 388.962175 L 215.481731 405.261827 L 206.069898 422.503142 L 196.095933 440.436371 L 185.350104 458.763966 L 173.637839 477.062772 L 160.76828 494.792245 L 146.61312 511.300215 L 131.112142 525.869598 L 114.30608 537.764148 L 96.322239 546.26414 L 77.395235 550.700824 L 57.860961 550.507442 L 38.126313 545.247655 L 18.670276 534.646765 L -0.00182646 518.62459 L -17.365873 497.303535 L -32.937499 471.010648 L -46.276136 440.273842 L -57.029321 405.784362 L -64.956389 368.389796 L -69.941822 329.047631 L -72.000655 288.782455 L -71.302846 248.659441 L -68.140605 209.712855 L -62.940642 172.930848 L -56.23526 139.187997 L -48.631528 109.232507 L -40.793402 83.638682 L -33.387478 62.793302 L -27.071551 46.887409 L -22.432701 35.898508 L -19.967227 29.605506 L -20.060313 27.611446 L -22.938631 29.357493 L -28.631303 34.121567 L -36.961009 41.049302 L -47.529951 49.220005 L -59.772053 57.718832 L -72.98161 65.712051 L -86.378552 72.480596 L -99.157567 77.468679 L -110.564677 80.329461 L -119.956335 80.911486 L -126.819365 79.247645 L -130.765187 75.496348 L -131.510851 69.925228 L -128.919302 62.877366 L -122.988072 54.759173 L -113.858457 46.001626 L -101.800171 37.051908 L -87.185519 28.32952 L -70.489806 20.21456 L -52.260653 13.031027 L -33.079501 7.029834 L -13.561475 2.392715 L 5.698176 -0.800914 L 24.121544 -2.53478 L 41.194087 -2.880814 L 56.461678 -1.971685 L 69.569784 0.0017381 L 80.244355 2.802782 L 88.327908 6.175068 L 93.740767 9.851683 L 96.516605 13.565664 L 96.834629 17.076235 L 95.032379 20.199629 L 91.555531 22.826476 L 86.899193 24.919942 L 81.576272 26.505113 L 76.047474 27.679249 L 70.708095 28.569258 L 65.848433 29.317438 L 61.641399 30.062372 L 58.153545 30.918993 L 55.364174 31.966197 L 53.188492 33.238215 L 51.481509 34.724474 L 50.045443 36.357619 L 48.673201 38.02762 L 47.143665 39.558495 L 45.258319 40.750019 L 42.840981 41.369917 L 39.753825 41.165032 L 35.913953 39.888107 L 31.297297 37.297648 L 25.923823 33.181891 L 19.885266 27.369562 L 13.309995 19.731101 L 6.363285 10.186474 L -0.740558 -1.283531 L -7.785187 -14.639563 L -14.533234 -29.800013 L -20.76131 -46.635881 L -26.248159 -64.967279 L -30.782872 -84.57487 L -34.175785 -105.17604 L -36.263739 -126.463796 L -36.925429 -148.098414 L -36.083311 -169.762094 L -33.702511 -191.127729 L -29.77993 -211.882737 L -24.355275 -231.709133 L -17.503254 -250.283799 L -9.334116 -267.294104 L 0.000804772 -282.48461 L 10.324842 -295.653717 L 21.446757 -306.681397 L 33.15833 -315.486113 L 45.260737 -322.053107 L 57.553788 -326.406655 L 69.847646 -328.610485 L 81.97049 -328.771945 L 93.769747 -327.006877 L 105.099696 -323.458719 L 115.845441 -318.283712 L 125.907972 -311.630837 L 135.206843 -303.67708 L 143.674005 -294.58032 L 151.279898 -284.515411 L 157.994966 -273.657212 L 163.836087 -262.193925 L 168.83603 -250.306491 L 173.061878 -238.200503 L 176.624069 -226.071339 L 179.716741 -214.17984 L 182.641572 -202.841414 L 185.797016 -192.398301 L 189.676176 -183.168684 L 194.81714 -175.41369 L 201.780382 -169.313144 L 211.125877 -164.949138 L 223.359268 -162.280702 L 238.8892 -161.13449 L 258.018685 -161.227938 L 280.909432 -162.183646 L 307.569856 -163.53678 L 337.857346 -164.782057 L 371.450672 -165.380593 L 407.872308 -164.791956 L 446.502693 -162.513749 L 486.579543 -158.10113 L 527.251825 -151.188236 L 567.586616 -141.515789 L 606.623476 -128.940807 L 643.389659 -113.448866 L 676.970928 -95.140933 L 706.514641 -74.256928 L 731.289809 -51.134827 L 750.70257 -26.215111 L 764.332832 0.000950694 " transform="matrix(0.999391,0.0348995,-0.0348995,0.999391,1000,1000)"/>
</g>
</svg>
