<?xml version="1.0" encoding="UTF-8"?>
<svg xmlns="http://www.w3.org/2000/svg" xmlns:xlink="http://www.w3.org/1999/xlink" width="900pt" height="460pt" viewBox="0 0 900 460" version="1.1">
<g id="surface62">
<path style="fill:none;stroke-width:2;stroke-linecap:butt;stroke-linejoin:miter;stroke:rgb(0%,0%,0%);stroke-opacity:1;stroke-miterlimit:10;" d="M -68.839844 -2.402344 L -70.988281 -2.480469 L -73.371094 -5.128906 L -75.660156 -10.632813 L -77.183594 -19.242188 L -76.886719 -31.066406 L -73.351562 -45.835938 L -64.878906 -62.652344 L -49.796875 -79.691406 L -26.949219 -93.984375 L 3.542969 -101.488281 L 39.429688 -97.589844 L 75.601563 -78.285156 L 104.058594 -42.042969 L 115.117187 8.050781 L 100.308594 62.679688 L 56.730469 106.695313 L -8.582031 122.738281 L -76.855469 98.371094 L -121.320313 34.789062 L -117.882812 -47.628906 L -59.90625 -112.667969 L 30.867188 -123.808594 L 107.796875 -67.359375 L 122.40625 30.519531 L 58.550781 110.121094 L -46.011719 113.882812 L -115.824219 33.210937 L -92.777344 -72.488281 L 7.992188 -114.3125 L 98.089844 -52.15625 L 90.972656 56.847656 L -7.199219 102.933594 L -91.667969 37.035156 L -67.894531 -65.5625 L 33.628906 -83.238281 L 85.019531 2.96875 L 22.132812 77.191406 L -64.015625 40 L -50.816406 -49.074219 L 34.871094 -55.804687 L 56.558594 22.851563 L -13.609375 54.589844 L -51.132812 -7.1875 L 3.289063 -47.050781 L 42.875 1.496094 L -1.355469 38.863281 L -35.074219 -2.453125 L 4.421875 -31.453125 L 27.871094 6.949219 L -9.765625 24.167969 L -20.183594 -12.613281 L 15.234375 -15.777344 L 10.839844 17.347656 L -18.605469 5.335937 L 0.648438 -18.59375 L 16.847656 6.804688 L -12.515625 12.960937 L -6.78125 -16.785156 L 18.34375 1.28125 L -9.976563 15.964844 L -9.101562 -17.113281 L 19.976562 1.398438 L -12.753906 16.328125 L -5.914062 -20.617188 L 20.574219 8.3125 L -20.234375 10.757812 L 5.707031 -22.890625 L 12.820312 20.515625 L -23.953125 -5.972656 L 22.121094 -11.761719 L -9.464844 23.425781 L -6.976562 -24.324219 L 19.808594 15.476563 L -24.675781 -1.726563 L 21.265625 -11.308594 L -12.285156 19.660156 L 1.539063 -21.988281 L 7.746094 19.175781 L -13.761719 -13.289063 L 16.164062 6.53125 L -15.613281 -0.546875 L 13.21875 -3.789062 L -10.058594 6.285156 L 6.941406 -7.1875 L -4.339844 6.941406 L 2.425781 -6.007812 L -1.183594 4.753906 L 0.484375 -3.4375 L -0.152344 2.207031 L 0.0390625 -1.132813 L -0.0078125 0.242187 L -0.03125 0.453125 L 0.132813 -0.941406 L -0.304688 1.214844 L 0.503906 -1.25 L -0.65625 1.050781 L 0.628906 -0.652344 L -0.289063 0.179687 L -0.460938 0.132812 L 1.566406 0.0546875 L -2.726562 -1.101563 L 3.3125 3.199219 L -2.457031 -6.078125 L -0.613281 8.757812 L 5.96875 -9.550781 L -12.332031 6.558594 L 16.828125 1.175781 L -15.699219 -12.265625 L 6.359375 22.179688 L 9.839844 -24.355469 L -26 13.824219 L 31.570312 7.871094 L -18.796875 -30.085938 L -9.238281 37.054687 L 35.855469 -19.066406 L -39.574219 -15.988281 L 12.222656 42.632813 L 28.054688 -35.910156 L -46.195312 -3.230469 L 21.855469 41.105469 L 24.539063 -39.273437 L -45.476562 -3.179688 L 16.640625 41.1875 L 29.78125 -30.839844 L -38.003906 -15.355469 L -1.355469 38.800781 L 35.03125 -10.046875 L -17.964844 -28.746094 L -21.710938 22.480469 L 24.226562 15.140625 L 9.707031 -24.03125 L -22.660156 -5.648438 L -2.914063 20.730469 L 18.660156 1.304688 L 0.582031 -16.703125 L -14.988281 -0.523438 L -0.949219 13.570312 L 12.4375 1.75 L 2.878906 -11.546875 L -10.792969 -4.363281 L -6.25 10.003906 L 8.890625 8.585938 L 11.304688 -7.0625 L -4.046875 -14.109375 L -16.375 -0.570313 L -6.898438 17.074219 L 14.90625 14.394531 L 21.570313 -8.714844 L 1.8125 -25.9375 L -24.496094 -15.304688 L -28.140625 14.960937 L -2.4375 34.839844 L 29.960937 23.40625 L 39.535156 -11.335937 L 16.566406 -41.003906 L -22.191406 -41.734375 L -48.726562 -12.148438 L -44.976563 28.105469 L -13.46875 54.019531 L 27.277344 51.296875 L 55.882812 22.578125 L 59.757813 -17.136719 L 39.242188 -50.226562 L 4.53125 -64.808594 L -30.910156 -58.128906 L -56.277344 -35.164063 L -66.398437 -4.644531 L -61.644531 24.90625 L -45.976563 47.613281 L -24.628906 60.953125 L -2.277344 65.179687 L 17.832031 62.195313 L 34.058594 54.503906 L 46.035156 44.457031 L 54.238281 33.890625 L 59.53125 24.050781 L 62.871094 15.675781 L 65.121094 9.152344 L 66.957031 4.683594 L 68.839844 2.402344 " transform="matrix(-1,0.000000000000351783,-0.000000000000351783,-1,450,230)"/>
</g>
</svg>
